<svg xmlns="http://www.w3.org/2000/svg" xmlns:xlink="http://www.w3.org/1999/xlink" id="Layer_1" x="0" y="0" enable-background="new 0 0 1330 350" version="1.1" viewBox="0 0 1330 350" xml:space="preserve"><style type="text/css">.st0{fill:#3883b0}.st1{enable-background:new}</style><g id="Layer_3"><g><polyline points="70.1 177.1 70.1 37.5 153.6 73.3" class="st0"/><g><path d="M282.9,115.8c-1.2-2-2.5-4-3.9-6l-1.3,3.9c0,0,1.4,0.5,3.6,1.3C281.7,115.3,282.3,115.5,282.9,115.8z" class="st0"/><path d="M241.6,173.5c0,8.3,6.8,15.1,15.1,15.1c8.3,0,15.1-6.7,15.1-15.1c0-8.3-6.7-15.1-15.1-15.1 C248.3,158.5,241.6,165.2,241.6,173.5z" class="st0"/><path d="M258.6,248.6l-0.2-11.9c0,0-0.4,0-1.1,0.1l0,0c-0.2,0-0.5,0-0.8,0c-0.6,0-1.2-0.1-1.9-0.1 c-1.4-0.1-2.9-0.2-4.7-0.2c-1.3-0.2-2.7-0.4-4-0.7c-1.3-0.1-2.8-0.5-4.2-0.9c-1.4-0.4-2.7-0.6-3.8-1c-2.2-0.8-3.6-1.3-3.6-1.3 l-4.3,11.1c-7.4-2.9-14.2-6.8-20.3-11.8l7.5-9.2c0,0-4.8-3.9-8.7-8.6c-1.8-2.5-3.8-4.8-4.9-6.9c-1.2-2-2-3.3-2-3.3l-10.4,5.7 c-3.6-6.6-6.3-13.9-7.8-21.5l11.6-2.3c0,0-0.2-1.5-0.6-3.8c-0.2-1.1-0.4-2.5-0.4-3.9c0-0.7-0.1-1.5-0.1-2.2l-0.1-1.1l0-0.6l0-0.3 l0-0.1c0.1-1.7,0.2-3.3,0.2-4.9c0.1-0.8,0.1-1.7,0.1-2.4c0.1-0.6,0.2-1.1,0.3-1.7c0.3-2.1,0.5-3.4,0.5-3.4l-11.6-2.2 c1.5-7.7,4.2-15,7.9-21.7l10.4,5.7c0,0,0.8-1.3,2-3.3c0.6-1,1.3-2.1,2.2-3.3c0.9-1.1,1.7-2.4,2.7-3.6c2.1-2.3,4.1-4.6,5.9-6.1 c0.9-0.8,1.6-1.4,2.1-1.9c0.5-0.5,0.8-0.7,0.8-0.7l-7.4-9.2c6.1-4.9,12.9-8.9,20.3-11.7l4.2,11.1c0,0,1.4-0.5,3.6-1.3 c1.1-0.3,2.4-0.6,3.8-1c1.4-0.4,2.9-0.8,4.4-0.9c1.5-0.2,3-0.5,4.5-0.7c1.4-0.1,2.8-0.1,3.9-0.2c0.6,0,1.1-0.1,1.6-0.1 c0.2,0,0.4,0,0.6,0l0.1,0c0.8,0,1.2,0.1,1.2,0.1l0.6-11.9c4.1,0.1,8.2,0.5,12.1,1.3c-21-23.9-51.8-38.9-86.2-38.9 c-63.4,0-114.8,51.4-114.8,114.8s51.4,114.8,114.8,114.8c36.7,0,69.4-17.3,90.4-44.1C270,247.7,264.4,248.5,258.6,248.6z M115,188.6c-8.3,0-15.1-6.7-15.1-15.1c0-8.3,6.7-15.1,15.1-15.1c8.3,0,15.1,6.7,15.1,15.1C130.1,181.9,123.3,188.6,115,188.6z" class="st0"/></g><path d="M254.8,110.4c0.6,0,1.1-0.1,1.6-0.1c0.2,0,0.4,0,0.6,0l0.1,0c0.8,0,1.2,0.1,1.2,0.1l0.6-11.9 c7.9,0.2,15.4,1.6,22.5,4l-3.9,11.2c0,0,1.4,0.5,3.6,1.3c1.1,0.4,2.3,1.1,3.6,1.7c1.3,0.6,2.7,1.2,4,2.1c1.3,0.8,2.6,1.6,3.9,2.3 c1.2,0.9,2.2,1.7,3.1,2.4c1.9,1.3,3,2.4,3,2.4l7.1-8.1v-1.4V38.8l-83.5,35.8l28.9,35.9C252.6,110.5,253.8,110.5,254.8,110.4z" class="st0"/></g></g><g id="Layer_4"><g class="st1"><path d="M577.3,91.1c12.5,10.9,18.8,26.4,18.8,46.4c0,21.2-6.2,37.6-18.8,49.4s-30.2,17.6-53,17.6h-24.2v45.5h-58 V74.7h82.2C547.1,74.7,564.8,80.2,577.3,91.1z M535.9,154.8c3.4-3.8,5.1-9,5.1-15.6c0-6.5-1.7-11.5-5.1-15.1 c-3.4-3.6-8.3-5.4-14.6-5.4h-21.2v41.8h21.2C527.6,160.4,532.5,158.6,535.9,154.8z" class="st0"/><path d="M726.6,249.9l-8.8-24.8h-65.7l-9,24.8h-59.5l74-175.2h59.5l71.2,175.2H726.6z M667.1,183.7h36.5l-18-51.2 L667.1,183.7z" class="st0"/><path d="M1000.6,74.7h59.2l-59.2,175.2h-59.5l-26.2-104.7l-27,104.7h-59.5L769.6,74.7h62l28.2,115l28-115h56.5 l28.5,115L1000.6,74.7z" class="st0"/><path d="M1170.5,120.9c-11.7-4.2-21.2-6.2-28.5-6.2c-7.2,0-10.8,2.6-10.8,7.8c0,4,2.3,7.1,6.9,9.2 c4.6,2.2,11.9,4.6,21.9,7.2c12.5,3.5,22.9,7,31.1,10.5s15.5,9,21.6,16.6c6.2,7.6,9.2,17.5,9.2,29.9c0,12.7-3.3,23.3-9.9,31.9 c-6.6,8.6-15.5,15-26.6,19.1c-11.2,4.2-23.6,6.2-37.2,6.2c-15.5,0-31.1-2.5-46.9-7.6s-29.4-12-40.9-20.9l21.5-43.8 c8.8,7.7,19.9,14.2,33.2,19.6c13.3,5.4,24.5,8.1,33.5,8.1c4.3,0,7.8-0.8,10.2-2.4c2.5-1.6,3.8-4,3.8-7.4c0-4-2.4-7.1-7.1-9.4 s-12.2-4.6-22.4-7.1c-12.3-3.2-22.6-6.5-30.9-9.9c-8.2-3.4-15.4-8.7-21.4-15.9c-6-7.2-9-16.8-9-28.8c0-11.7,3.1-21.9,9.2-30.6 c6.2-8.8,14.9-15.5,26.2-20.1c11.3-4.7,24.5-7,39.5-7c13.7,0,27.3,1.9,40.9,5.8c13.6,3.8,25.4,8.9,35.4,15.2l-21,44.2 C1192.8,129.9,1182.2,125.1,1170.5,120.9z" class="st0"/></g></g></svg>