<?xml version="1.0" encoding="utf-8"?>
<!-- Generator: Adobe Illustrator 16.2.1, SVG Export Plug-In . SVG Version: 6.00 Build 0)  -->
<!DOCTYPE svg PUBLIC "-//W3C//DTD SVG 1.1//EN" "http://www.w3.org/Graphics/SVG/1.1/DTD/svg11.dtd">
<svg version="1.1" xmlns="http://www.w3.org/2000/svg" xmlns:xlink="http://www.w3.org/1999/xlink" x="0px" y="0px"
	 width="1330px" height="350px" viewBox="0 0 1330 350" enable-background="new 0 0 1330 350"
	 xml:space="preserve">
<g id="Layer_3">
	<g>
		<polyline fill="#3883B0" points="73.769,177.162 73.769,30.284 161.69,67.955 		"/>
		<g>
			<path fill="#3883B0" d="M297.75,112.678c-1.309-2.138-2.684-4.23-4.12-6.278l-1.414,4.125c0,0,1.521,0.551,3.795,1.384
				C296.568,112.108,297.146,112.38,297.75,112.678z"/>
			<path fill="#3883B0" d="M254.27,173.457c0,8.764,7.107,15.864,15.866,15.864c8.76,0,15.864-7.1,15.864-15.864
				c0-8.762-7.104-15.866-15.864-15.866C261.377,157.59,254.27,164.694,254.27,173.457z"/>
			<path fill="#3883B0" d="M272.226,252.438l-0.243-12.479c0,0-0.401,0.02-1.112,0.064l-0.049,0.003
				c-0.252-0.012-0.51-0.024-0.794-0.039c-0.585-0.029-1.244-0.062-1.965-0.098c-1.428-0.078-3.102-0.161-4.897-0.258
				c-1.354-0.225-2.799-0.465-4.243-0.711c-1.404-0.126-2.989-0.576-4.458-0.963c-1.459-0.4-2.851-0.678-3.999-1.058
				c-2.271-0.841-3.787-1.399-3.787-1.399l-4.512,11.66c-7.78-3.009-14.967-7.204-21.33-12.379l7.86-9.663
				c0,0-5.005-4.139-9.2-9.085c-1.906-2.611-4.042-5.076-5.169-7.231c-1.267-2.067-2.11-3.449-2.11-3.449l-10.925,5.977
				c-3.821-6.983-6.609-14.609-8.181-22.671l12.234-2.384c0,0-0.239-1.602-0.602-3.998c-0.239-1.189-0.4-2.598-0.413-4.121
				c-0.038-0.758-0.075-1.544-0.112-2.34l-0.07-1.204l-0.035-0.602l-0.018-0.303l-0.007-0.139c0.089-1.764,0.182-3.521,0.262-5.178
				c0.054-0.876,0.071-1.818,0.15-2.541c0.109-0.621,0.214-1.208,0.311-1.751c0.334-2.167,0.559-3.613,0.559-3.613l-12.237-2.357
				c1.597-8.121,4.435-15.792,8.312-22.813l10.905,6.02c0,0,0.842-1.375,2.105-3.447c0.581-1.068,1.377-2.239,2.331-3.424
				c0.938-1.194,1.83-2.551,2.883-3.773c2.186-2.393,4.31-4.841,6.201-6.376c0.899-0.822,1.642-1.503,2.166-1.981
				c0.518-0.482,0.869-0.695,0.869-0.695l-7.827-9.698c6.384-5.151,13.584-9.323,21.378-12.303l4.467,11.686
				c0,0,1.517-0.556,3.785-1.399c1.175-0.299,2.541-0.655,4.009-1.033c1.457-0.414,3.025-0.798,4.637-0.968
				c1.603-0.241,3.2-0.481,4.694-0.706c1.521-0.074,2.934-0.139,4.156-0.197c0.602-0.036,1.161-0.066,1.655-0.092
				c0.221-0.016,0.431-0.027,0.625-0.038l0.107,0.006c0.836,0.037,1.312,0.063,1.312,0.063l0.636-12.475
				c4.353,0.102,8.614,0.563,12.765,1.341c-22.144-25.135-54.566-40.998-90.701-40.998c-66.735,0-120.838,54.104-120.838,120.84
				c0,66.736,54.103,120.841,120.838,120.841c38.668,0,73.09-18.161,95.209-46.417C284.166,251.498,278.284,252.319,272.226,252.438
				z M121.039,189.32c-8.762,0-15.866-7.1-15.866-15.864c0-8.762,7.104-15.866,15.866-15.866c8.759,0,15.864,7.104,15.864,15.866
				C136.902,182.221,129.798,189.32,121.039,189.32z"/>
		</g>
		<path fill="#3883B0" d="M268.207,107.019c0.602-0.036,1.161-0.066,1.655-0.092c0.221-0.016,0.431-0.027,0.625-0.038l0.107,0.006
			c0.836,0.037,1.312,0.063,1.312,0.063l0.636-12.475c8.289,0.194,16.259,1.661,23.727,4.218l-4.053,11.823
			c0,0,1.521,0.551,3.795,1.384c1.145,0.409,2.375,1.123,3.752,1.748c1.362,0.656,2.852,1.306,4.188,2.217
			c1.377,0.84,2.768,1.683,4.055,2.47c1.219,0.911,2.348,1.764,3.315,2.495c2.006,1.377,3.128,2.568,3.128,2.568l7.504-8.572v-1.465
			V31.683l-87.922,37.673l30.464,37.838C265.846,107.129,267.106,107.071,268.207,107.019z"/>
	</g>
</g>
<g id="Layer_4">
	
		<text transform="matrix(1 0 0 1 377.5767 289.1211)" fill="#3883B0" font-family="'AbadiMT-CondensedExtraBold'" font-size="356.7696">PAWS</text>
</g>
</svg>
